<svg width="908" height="894" viewBox="0 0 908 894" fill="none" xmlns="http://www.w3.org/2000/svg">
<path d="M458.545 575.378C517.253 575.378 564.845 527.786 564.845 469.078C564.845 410.37 517.253 362.777 458.545 362.777C399.837 362.777 352.245 410.37 352.245 469.078C352.245 527.786 399.837 575.378 458.545 575.378Z" fill="#FFDE33"/>
<path d="M458.544 528.093C491.159 528.093 517.599 501.653 517.599 469.038C517.599 436.422 491.159 409.982 458.544 409.982C425.929 409.982 399.489 436.422 399.489 469.038C399.489 501.653 425.929 528.093 458.544 528.093Z" fill="#332700"/>
<path fill-rule="evenodd" clip-rule="evenodd" d="M324.816 492.597C331.986 533.447 357.426 568.037 392.406 587.607C387.816 612.097 384.536 638.838 385.116 663.658C386.806 736.647 415.996 815.337 415.996 815.337C415.996 815.337 266.416 904.647 184.096 776.527C110.116 661.397 181.246 553.707 255.796 513.957C279.436 501.357 303.156 495.127 324.816 492.597ZM550.916 568.587C572.796 580.517 597.226 591.908 621.026 599.038C690.966 619.978 774.816 616.527 774.816 616.527C774.816 616.527 813.536 786.397 666.256 825.087C533.886 859.867 453.456 758.947 438.686 675.767C434.006 649.387 435.416 624.897 439.696 603.517C445.876 604.377 452.186 604.827 458.596 604.827C494.226 604.827 526.676 591.067 550.916 568.587ZM581.866 411.937C599.966 394.817 618.346 375.115 632.466 354.699C673.996 294.651 696.626 213.839 696.626 213.839C696.626 213.839 870.136 229.51 861.426 381.539C853.606 518.179 732.766 563.489 649.086 551.819C622.556 548.129 599.696 539.219 580.686 528.539C589.486 510.559 594.416 490.349 594.416 468.999C594.416 448.619 589.926 429.289 581.866 411.939V411.937ZM325.316 442.697C300.616 445.907 274.166 451.047 250.746 459.267C181.856 483.437 116.046 535.507 116.046 535.507C116.046 535.507 -15.1241 420.847 81.2859 302.967C167.926 197.027 292.326 231.399 353.166 290.018C372.456 308.607 385.716 329.252 394.816 349.066C359.386 367.962 333.296 402.097 325.316 442.697ZM442.416 334.127C431.736 311.622 418.676 288.059 403.616 268.319C359.346 210.268 289.476 163.769 289.476 163.769C289.476 163.769 358.006 3.58947 499.906 58.8495C627.426 108.514 633.176 237.439 596.226 313.419C584.506 337.526 568.956 356.519 552.916 371.301C528.476 347.698 495.216 333.17 458.596 333.17C453.126 333.17 447.726 333.494 442.416 334.125V334.127Z" stroke="white" stroke-width="84.17" stroke-miterlimit="1.5" stroke-linecap="round" stroke-linejoin="round"/>
<path fill-rule="evenodd" clip-rule="evenodd" d="M324.816 492.597C331.986 533.447 357.426 568.037 392.406 587.607C387.816 612.097 384.536 638.838 385.116 663.658C386.806 736.647 415.996 815.337 415.996 815.337C415.996 815.337 266.416 904.647 184.096 776.527C110.116 661.397 181.246 553.707 255.796 513.957C279.436 501.357 303.156 495.127 324.816 492.597ZM550.916 568.587C572.796 580.517 597.226 591.908 621.026 599.038C690.966 619.978 774.816 616.527 774.816 616.527C774.816 616.527 813.536 786.397 666.256 825.087C533.886 859.867 453.456 758.947 438.686 675.767C434.006 649.387 435.416 624.897 439.696 603.517C445.876 604.377 452.186 604.827 458.596 604.827C494.226 604.827 526.676 591.067 550.916 568.587ZM581.866 411.937C599.966 394.817 618.346 375.115 632.466 354.699C673.996 294.651 696.626 213.839 696.626 213.839C696.626 213.839 870.136 229.51 861.426 381.539C853.606 518.179 732.766 563.489 649.086 551.819C622.556 548.129 599.696 539.219 580.686 528.539C589.486 510.559 594.416 490.349 594.416 468.999C594.416 448.619 589.926 429.289 581.866 411.939V411.937ZM325.316 442.697C300.616 445.907 274.166 451.047 250.746 459.267C181.856 483.437 116.046 535.507 116.046 535.507C116.046 535.507 -15.1241 420.847 81.2859 302.967C167.926 197.027 292.326 231.399 353.166 290.018C372.456 308.607 385.716 329.252 394.816 349.066C359.386 367.962 333.296 402.097 325.316 442.697ZM442.416 334.127C431.736 311.622 418.676 288.059 403.616 268.319C359.346 210.268 289.476 163.769 289.476 163.769C289.476 163.769 358.006 3.58947 499.906 58.8495C627.426 108.514 633.176 237.439 596.226 313.419C584.506 337.526 568.956 356.519 552.916 371.301C528.476 347.698 495.216 333.17 458.596 333.17C453.126 333.17 447.726 333.494 442.416 334.125V334.127Z" fill="#336DFF" stroke="#0047FF" stroke-width="22.5" stroke-miterlimit="1.5" stroke-linecap="round" stroke-linejoin="round"/>
</svg>
