<svg width="1112" height="1112" viewBox="0 0 1112 1112" fill="none" xmlns="http://www.w3.org/2000/svg">
<circle cx="556" cy="556" r="556" fill="white"/>
<path d="M555.545 662.378C614.253 662.378 661.845 614.786 661.845 556.078C661.845 497.37 614.253 449.777 555.545 449.777C496.837 449.777 449.245 497.37 449.245 556.078C449.245 614.786 496.837 662.378 555.545 662.378Z" fill="#FFDE33"/>
<path d="M555.544 615.093C588.159 615.093 614.599 588.653 614.599 556.038C614.599 523.422 588.159 496.982 555.544 496.982C522.929 496.982 496.489 523.422 496.489 556.038C496.489 588.653 522.929 615.093 555.544 615.093Z" fill="#332700"/>
<path fill-rule="evenodd" clip-rule="evenodd" d="M421.816 579.597C428.986 620.447 454.426 655.037 489.406 674.607C484.816 699.097 481.536 725.838 482.116 750.658C483.806 823.647 512.996 902.337 512.996 902.337C512.996 902.337 363.416 991.647 281.096 863.527C207.116 748.397 278.246 640.707 352.796 600.957C376.436 588.357 400.156 582.127 421.816 579.597ZM647.916 655.587C669.796 667.517 694.226 678.908 718.026 686.038C787.966 706.978 871.816 703.527 871.816 703.527C871.816 703.527 910.536 873.397 763.256 912.087C630.886 946.867 550.456 845.947 535.686 762.767C531.006 736.387 532.416 711.897 536.696 690.517C542.876 691.377 549.186 691.827 555.596 691.827C591.226 691.827 623.676 678.067 647.916 655.587ZM678.866 498.937C696.966 481.817 715.346 462.115 729.466 441.699C770.996 381.651 793.626 300.839 793.626 300.839C793.626 300.839 967.136 316.51 958.426 468.539C950.606 605.179 829.766 650.489 746.086 638.819C719.556 635.129 696.696 626.219 677.686 615.539C686.486 597.559 691.416 577.349 691.416 555.999C691.416 535.619 686.926 516.289 678.866 498.939V498.937ZM422.316 529.697C397.616 532.907 371.166 538.047 347.746 546.267C278.856 570.437 213.046 622.507 213.046 622.507C213.046 622.507 81.8759 507.847 178.286 389.967C264.926 284.027 389.326 318.399 450.166 377.018C469.456 395.607 482.716 416.252 491.816 436.066C456.386 454.962 430.296 489.097 422.316 529.697ZM539.416 421.127C528.736 398.622 515.676 375.059 500.616 355.319C456.346 297.268 386.476 250.769 386.476 250.769C386.476 250.769 455.006 90.5895 596.906 145.849C724.426 195.514 730.176 324.439 693.226 400.419C681.506 424.526 665.956 443.519 649.916 458.301C625.476 434.698 592.216 420.17 555.596 420.17C550.126 420.17 544.726 420.494 539.416 421.125V421.127Z" stroke="white" stroke-width="84.17" stroke-miterlimit="1.5" stroke-linecap="round" stroke-linejoin="round"/>
<path fill-rule="evenodd" clip-rule="evenodd" d="M421.816 579.597C428.986 620.447 454.426 655.037 489.406 674.607C484.816 699.097 481.536 725.837 482.116 750.658C483.806 823.647 512.996 902.337 512.996 902.337C512.996 902.337 363.416 991.647 281.096 863.527C207.116 748.397 278.246 640.707 352.796 600.957C376.436 588.357 400.156 582.127 421.816 579.597ZM647.916 655.587C669.796 667.517 694.226 678.908 718.026 686.038C787.966 706.978 871.816 703.527 871.816 703.527C871.816 703.527 910.536 873.397 763.256 912.087C630.886 946.867 550.456 845.947 535.686 762.767C531.006 736.387 532.416 711.897 536.696 690.517C542.876 691.377 549.186 691.827 555.596 691.827C591.226 691.827 623.676 678.067 647.916 655.587ZM678.866 498.937C696.966 481.817 715.346 462.116 729.466 441.699C770.996 381.651 793.626 300.839 793.626 300.839C793.626 300.839 967.136 316.51 958.426 468.539C950.606 605.179 829.766 650.489 746.086 638.819C719.556 635.129 696.696 626.219 677.686 615.539C686.486 597.559 691.416 577.349 691.416 555.999C691.416 535.619 686.926 516.289 678.866 498.939V498.937ZM422.316 529.697C397.616 532.907 371.166 538.047 347.746 546.267C278.856 570.438 213.046 622.507 213.046 622.507C213.046 622.507 81.8759 507.847 178.286 389.967C264.926 284.027 389.326 318.399 450.166 377.018C469.456 395.607 482.716 416.252 491.816 436.066C456.386 454.962 430.296 489.097 422.316 529.697ZM539.416 421.127C528.736 398.622 515.676 375.059 500.616 355.319C456.346 297.268 386.476 250.769 386.476 250.769C386.476 250.769 455.006 90.5895 596.906 145.849C724.426 195.514 730.176 324.439 693.226 400.419C681.506 424.526 665.956 443.519 649.916 458.301C625.476 434.698 592.216 420.17 555.596 420.17C550.126 420.17 544.726 420.494 539.416 421.125V421.127Z" fill="#336DFF" stroke="#0047FF" stroke-width="22.5" stroke-miterlimit="1.5" stroke-linecap="round" stroke-linejoin="round"/>
</svg>
