<svg width="901" height="884" viewBox="0 0 901 884" fill="none" xmlns="http://www.w3.org/2000/svg">
<path d="M455.641 571.125C514.349 571.125 561.941 523.533 561.941 464.825C561.941 406.117 514.349 358.524 455.641 358.524C396.933 358.524 349.341 406.117 349.341 464.825C349.341 523.533 396.933 571.125 455.641 571.125Z" fill="#FFDE33"/>
<path d="M455.64 523.84C488.256 523.84 514.696 497.4 514.696 464.785C514.696 432.169 488.256 405.729 455.64 405.729C423.025 405.729 396.585 432.169 396.585 464.785C396.585 497.4 423.025 523.84 455.64 523.84Z" fill="#332700"/>
<path fill-rule="evenodd" clip-rule="evenodd" d="M321.912 488.344C329.082 529.194 354.522 563.784 389.502 583.354C384.912 607.844 381.632 634.585 382.212 659.405C383.902 732.395 413.092 811.084 413.092 811.084C413.092 811.084 263.512 900.395 181.192 772.275C107.212 657.145 178.342 549.454 252.892 509.704C276.532 497.104 300.252 490.874 321.912 488.344ZM548.012 564.334C569.892 576.264 594.322 587.655 618.122 594.785C688.062 615.725 771.912 612.275 771.912 612.275C771.912 612.275 810.632 782.144 663.352 820.834C530.982 855.614 450.552 754.695 435.782 671.515C431.102 645.135 432.512 620.645 436.792 599.265C442.972 600.125 449.282 600.574 455.692 600.574C491.322 600.574 523.772 586.814 548.012 564.334ZM578.962 407.684C597.062 390.564 615.442 370.863 629.562 350.447C671.092 290.399 693.722 209.586 693.722 209.586C693.722 209.586 867.232 225.257 858.522 377.286C850.702 513.926 729.862 559.237 646.182 547.567C619.652 543.877 596.792 534.966 577.782 524.286C586.582 506.306 591.512 486.096 591.512 464.746C591.512 444.366 587.022 425.037 578.962 407.687V407.684ZM322.412 438.444C297.712 441.654 271.262 446.795 247.842 455.015C178.952 479.185 113.142 531.255 113.142 531.255C113.142 531.255 -18.0277 416.594 78.3823 298.714C165.022 192.774 289.422 227.147 350.262 285.766C369.552 304.355 382.812 324.999 391.912 344.813C356.482 363.709 330.392 397.844 322.412 438.444ZM439.512 329.875C428.832 307.37 415.772 283.807 400.712 264.067C356.442 206.016 286.572 159.516 286.572 159.516C286.572 159.516 355.102 -0.663495 497.002 54.5965C624.522 104.262 630.272 233.187 593.322 309.167C581.602 333.274 566.052 352.267 550.012 367.049C525.572 343.446 492.312 328.917 455.692 328.917C450.222 328.917 444.822 329.241 439.512 329.872V329.875Z" stroke="white" stroke-width="84.17" stroke-miterlimit="1.5" stroke-linecap="round" stroke-linejoin="round"/>
<path fill-rule="evenodd" clip-rule="evenodd" d="M321.912 488.344C329.082 529.194 354.522 563.784 389.502 583.354C384.912 607.844 381.632 634.585 382.212 659.405C383.902 732.395 413.092 811.084 413.092 811.084C413.092 811.084 263.512 900.395 181.192 772.275C107.212 657.145 178.342 549.454 252.892 509.704C276.532 497.104 300.252 490.874 321.912 488.344ZM548.012 564.334C569.892 576.264 594.322 587.655 618.122 594.785C688.062 615.725 771.912 612.275 771.912 612.275C771.912 612.275 810.632 782.144 663.352 820.834C530.982 855.614 450.552 754.695 435.782 671.515C431.102 645.135 432.512 620.645 436.792 599.265C442.972 600.125 449.282 600.574 455.692 600.574C491.322 600.574 523.772 586.814 548.012 564.334ZM578.962 407.684C597.062 390.564 615.442 370.863 629.562 350.447C671.092 290.399 693.722 209.586 693.722 209.586C693.722 209.586 867.232 225.257 858.522 377.286C850.702 513.926 729.862 559.237 646.182 547.567C619.652 543.877 596.792 534.966 577.782 524.286C586.582 506.306 591.512 486.096 591.512 464.746C591.512 444.366 587.022 425.037 578.962 407.687V407.684ZM322.412 438.444C297.712 441.654 271.262 446.795 247.842 455.015C178.952 479.185 113.142 531.255 113.142 531.255C113.142 531.255 -18.0277 416.594 78.3823 298.714C165.022 192.774 289.422 227.147 350.262 285.766C369.552 304.355 382.812 324.999 391.912 344.813C356.482 363.709 330.392 397.844 322.412 438.444ZM439.512 329.875C428.832 307.37 415.772 283.807 400.712 264.067C356.442 206.016 286.572 159.516 286.572 159.516C286.572 159.516 355.102 -0.663495 497.002 54.5965C624.522 104.262 630.272 233.187 593.322 309.167C581.602 333.274 566.052 352.267 550.012 367.049C525.572 343.446 492.312 328.917 455.692 328.917C450.222 328.917 444.822 329.241 439.512 329.872V329.875Z" fill="#336DFF" stroke="#0047FF" stroke-width="22.5" stroke-miterlimit="1.5" stroke-linecap="round" stroke-linejoin="round"/>
</svg>
