<svg width="1348" height="1348" viewBox="0 0 1348 1348" fill="none" xmlns="http://www.w3.org/2000/svg">
<path d="M674 745.68C834.808 745.68 965.168 615.319 965.168 454.512C965.168 293.704 834.808 163.344 674 163.344C513.193 163.344 382.832 293.704 382.832 454.512C382.832 615.319 513.193 745.68 674 745.68Z" fill="white"/>
<path d="M674 697.152C808.006 697.152 916.64 588.518 916.64 454.512C916.64 320.506 808.006 211.872 674 211.872C539.994 211.872 431.36 320.506 431.36 454.512C431.36 588.518 539.994 697.152 674 697.152Z" fill="#336DFF"/>
<path d="M443.223 913.337C604.03 913.337 734.391 782.977 734.391 622.169C734.391 461.362 604.03 331.001 443.223 331.001C282.415 331.001 152.055 461.362 152.055 622.169C152.055 782.977 282.415 913.337 443.223 913.337Z" fill="white"/>
<path d="M443.222 864.809C577.229 864.809 685.862 756.176 685.862 622.169C685.862 488.163 577.229 379.529 443.222 379.529C309.216 379.529 200.582 488.163 200.582 622.169C200.582 756.176 309.216 864.809 443.222 864.809Z" fill="#336DFF"/>
<path d="M531.382 1184.62C692.189 1184.62 822.55 1054.26 822.55 893.454C822.55 732.647 692.189 602.286 531.382 602.286C370.574 602.286 240.214 732.647 240.214 893.454C240.214 1054.26 370.574 1184.62 531.382 1184.62Z" fill="white"/>
<path d="M531.381 1136.09C665.388 1136.09 774.022 1027.46 774.022 893.454C774.022 759.448 665.388 650.814 531.381 650.814C397.375 650.814 288.741 759.448 288.741 893.454C288.741 1027.46 397.375 1136.09 531.381 1136.09Z" fill="#336DFF"/>
<path d="M816.618 1184.62C977.426 1184.62 1107.79 1054.26 1107.79 893.454C1107.79 732.647 977.426 602.286 816.618 602.286C655.811 602.286 525.45 732.647 525.45 893.454C525.45 1054.26 655.811 1184.62 816.618 1184.62Z" fill="white"/>
<path d="M816.619 1136.09C950.625 1136.09 1059.26 1027.46 1059.26 893.454C1059.26 759.448 950.625 650.814 816.619 650.814C682.612 650.814 573.979 759.448 573.979 893.454C573.979 1027.46 682.612 1136.09 816.619 1136.09Z" fill="#336DFF"/>
<path d="M1181.69 532.19C1164.47 479.195 1132.41 432.252 1089.31 396.932C1046.22 361.611 993.89 339.396 938.545 332.922C958.941 377.281 967.854 426.057 964.464 474.762C961.074 523.467 945.489 570.538 919.144 611.643C892.799 652.748 856.539 686.567 813.701 709.99C770.863 733.412 722.823 745.685 674 745.68C662.681 745.654 651.373 744.979 640.131 743.658C671.089 811.243 726.725 864.428 795.635 892.312C864.545 920.195 941.511 920.666 1010.76 893.627C1080 866.588 1136.29 814.087 1168.07 746.885C1199.85 679.683 1204.72 602.87 1181.69 532.19V532.19Z" fill="white"/>
<path d="M1135.69 547.187C1122.64 506.954 1099.28 470.837 1067.95 442.424C1036.62 414.011 998.394 394.292 957.08 385.225C967.14 426.348 968.11 469.17 959.922 510.706C951.735 552.242 934.587 591.493 909.675 625.722C884.762 659.951 852.684 688.336 815.677 708.896C778.67 729.457 737.624 741.699 695.4 744.77C725.551 796.57 773.807 835.378 830.87 853.715C887.932 872.052 949.762 868.62 1004.44 844.081C1059.13 819.542 1102.79 775.632 1127.03 720.813C1151.26 665.994 1154.35 604.146 1135.69 547.187V547.187Z" fill="#336DFF"/>
<path d="M674 916.64C808.006 916.64 916.64 808.006 916.64 674C916.64 539.994 808.006 431.36 674 431.36C539.994 431.36 431.36 539.994 431.36 674C431.36 808.006 539.994 916.64 674 916.64Z" fill="#FFDE33"/>
<path d="M674 815.54C752.17 815.54 815.54 752.17 815.54 674C815.54 595.83 752.17 532.46 674 532.46C595.83 532.46 532.46 595.83 532.46 674C532.46 752.17 595.83 815.54 674 815.54Z" fill="#332700"/>
</svg>
