<svg version="1" xmlns="http://www.w3.org/2000/svg" width="826.667" height="826.667" viewBox="0 0 620.000000 620.000000"><path d="M289.8 37c-32.4 5.1-60.1 19.3-82.6 42.1-7.2 7.4-21.1 25.1-21.2 27.1 0 .4 2.6 1 5.8 1.3 39.5 4.6 75.8 22.1 103.7 50.2l8 8 11.5.7c6.3.4 15.3 1.4 20 2.2 31.7 5.4 63.6 23.6 83.8 47.7 7.1 8.4 16.6 22.2 17.7 25.7.4 1.1 1 2 1.5 2 2.4 0 9.6-19.3 13.2-35.1 3-13.7 3.3-42.3.5-56.2-11.3-56.1-54-100.3-109.3-113.3-9-2.1-14-2.6-28.9-2.9-9.9-.2-20.6 0-23.7.5zM153.6 136.5c-11.3 1.6-24.4 5.2-35.5 9.6-37.5 15-68.7 48.4-81.6 87.2-5 15.2-6.5 23.6-7.2 40.2-1.3 34.9 7.8 64.2 28.7 92.4 3.3 4.4 6.4 8.1 6.9 8.1s1.6-1.9 2.6-4.3c2.7-6.9 12.2-23.1 18.7-31.9 13.3-18 34.1-36.5 53.3-47.5 8.4-4.8 27.1-13.3 29.2-13.3.5 0 2.6-5 4.6-11.1 10.4-31.3 30.2-57.5 57.2-75.6 9.6-6.4 23.1-12.9 37.4-17.8 1.6-.6-5.4-6.6-15.9-13.6-15-10-35.5-18.2-53.7-21.5-12.6-2.2-32.8-2.6-44.7-.9zM478.5 140.9c1.7 5.5 3.6 20.2 4.2 32.1 1.5 34.7-8.3 70.8-27.4 100.4l-4.4 6.8 1 6.7c4.7 31.2.2 60-13.7 87.6-7.1 14.2-19.7 31.5-28.8 39.5-2 1.7-3.4 3.3-3.2 3.6 1.1 1 19.2 4.4 29.4 5.4 13.6 1.4 30.5.1 45.1-3.5 54.6-13.2 95.7-55.7 107.9-111.5 2.7-12.1 2.7-44.9 0-57-11.4-52.1-48.2-93.1-97.9-108.9-11.5-3.7-13.1-3.8-12.2-1.2zM289.5 228.1c-15.1 3.7-31.5 13.5-41.7 24.8-38 42.2-25.2 108.5 25.7 133.1 22.7 10.9 50.5 10.9 73-.1 29.6-14.4 47.6-43.2 47.6-75.9 0-39.4-26.2-72.9-64.4-82-11.1-2.7-29.1-2.6-40.2.1zM157.5 313.3c-37.7 19.8-64.4 55.7-73.7 99-3.1 14.7-3.1 40.8.1 55.7 6.3 29.8 18.6 52.5 39.6 73.6 20.7 20.7 44.9 33.8 74.5 40.1 11.6 2.5 44 2.5 55 0 8.3-1.8 25.7-7.2 27.9-8.7 1.2-.7-1.1-3.5-10.1-12.9-32.6-33.7-49.2-75.6-48.7-122.4l.1-13.8-7.8-6.8c-17.4-15-32-36.9-40.2-60.1-4-11.4-6-21.1-7.5-35.7l-1.2-12.2-8 4.2zM524.4 433.5c-13.5 6.9-29.7 12.5-44.9 15.5-13.5 2.7-36.2 3.6-50.6 2.1-13.1-1.5-34.1-6.6-44.8-11l-7.4-3-5.1 2.6c-20.5 10.4-49.6 15.7-73.8 13.3-13.2-1.3-30.6-5.3-40.5-9.3l-6.3-2.6v6.8c0 16.2 6.9 41.6 16 58.9 22 41.8 63.2 70.4 109.6 76.3 12 1.5 35.1.7 45.9-1.6 28.8-6 53.3-19.2 74-40 20.9-20.8 33.6-44.5 39.5-73.6 3.2-15.5 3.9-41.3 1.2-40.8-.4.1-6.2 3-12.8 6.4z"/></svg>